<svg version="1.2" xmlns="http://www.w3.org/2000/svg" viewBox="0 0 123 124" width="123" height="124">
	<title>auto-insurance-calculator-icon-svg</title>
	<style>
		.s0 { fill: #1992d4 } 
	</style>
	<g id="Layer">
		<path id="Layer" fill-rule="evenodd" class="s0" d="m93.4 80.1v36h-8.4v-5.6h-49.6v5.6h-8.4v-36h-2.9v-5.5h7.1l3.9-12.3c1.2-3.6 3.1-6.9 6.9-6.9h37.9c3.8 0 6 3.2 6.9 6.9l3 12.3h6.5v5.5zm-84.2 36h-9.2v-103.5c0-2.5 2-4.6 4.6-4.6h113.7c2.5 0 4.6 2.1 4.6 4.6v103.5h-9.2v-98.9h-104.5zm50.6-88.3c1.6 7.3 6.3 10.9 6.3 14.6 0 3.6-1.6 7.2-6.3 7.2-4.7 0-6.2-3.6-6.2-7.2 0-3.7 4.7-7.3 6.2-14.6zm20.9-3.4c1.6 7.9 6.3 11.8 6.3 15.8 0 3.9-1.6 7.9-6.3 7.9-4.7 0-6.2-4-6.2-7.9 0-4 4.7-7.9 6.2-15.8zm-40.3 9.8c1.1 5.2 4.5 7.9 4.5 10.5 0 2.6-1.2 5.2-4.5 5.2-3.4 0-4.6-2.6-4.6-5.2 0-2.7 3.4-5.3 4.6-10.5zm7.2 71.1h24.9v-5.9h-24.9zm-17.8-19.5v8.4h11.2c-1-5.5-4.9-8.2-11.2-8.4zm60 0c-6.3 0.2-10.2 2.9-11.2 8.4h11.2zm-55.6-11.2h52l-2.2-10.3c-0.6-2.8-2.4-5.3-5.3-5.3h-35.9c-2.9 0-4.4 2.5-5.3 5.3z"/>
	</g>
</svg>