<svg version="1.2" xmlns="http://www.w3.org/2000/svg" viewBox="0 0 496 496" width="496" height="496">
	<title>profits-graph-svgrepo-com-svg</title>
	<style>
		.s0 { fill: #000000 } 
		.s1 { fill: #d96704 } 
		.s2 { fill: #1992d4 } 
	</style>
	<g id="Layer">
		<g id="Layer">
			<g id="Layer">
				<path id="Layer" fill-rule="evenodd" class="s0" d="m496 216v280h-496v-120c0-48.5 39.5-88 88-88 29.8 0 56.1 14.9 72 37.6v-29.6c0-48.5 39.5-88 88-88 29.8 0 56.1 14.9 72 37.6v-29.6c0-48.5 39.5-88 88-88 48.5 0 88 39.5 88 88zm-336 210.4c-15.9 22.7-42.2 37.6-72 37.6-29.8 0-56.1-14.9-72-37.6v53.6h144zm0-50.4c0-39.7-32.3-72-72-72-39.7 0-72 32.3-72 72 0 39.7 32.3 72 72 72 39.7 0 72-32.3 72-72zm160-29.6c-15.9 22.7-42.2 37.6-72 37.6-29.8 0-56.1-14.9-72-37.6v133.6h144zm0-50.5c0-39.7-32.3-72-72-72-39.7 0-72 32.3-72 72 0 39.7 32.3 72 72 72 39.7 0 72-32.3 72-72zm160-29.5c-15.9 22.6-42.2 37.5-72 37.5-29.8 0-56.1-14.9-72-37.5v213.5h144zm0-50.4c0-39.7-32.3-72-72-72-39.7 0-72 32.3-72 72 0 39.7 32.3 72 72 72 39.7 0 72-32.3 72-72z"/>
				<path id="Layer" class="s0" d="m400 192h16c4.4 0 8 3.6 8 8h16c0-13.2-10.8-24-24-24v-16h-16v16c-13.2 0-24 10.8-24 24 0 13.2 10.8 24 24 24h16c4.4 0 8 3.6 8 8 0 4.4-3.6 8-8 8h-16c-4.4 0-8-3.6-8-8h-16c0 13.2 10.8 24 24 24v16h16v-16c13.2 0 24-10.8 24-24 0-13.2-10.8-24-24-24h-16c-4.4 0-8-3.6-8-8 0-4.4 3.6-8 8-8z"/>
				<path id="Layer" class="s0" d="m240 272h16c4.4 0 8 3.6 8 8h16c0-13.2-10.8-24-24-24v-16h-16v16c-13.2 0-24 10.8-24 24 0 13.2 10.8 24 24 24h16c4.4 0 8 3.6 8 8 0 4.4-3.6 8-8 8h-16c-4.4 0-8-3.6-8-8h-16c0 13.2 10.8 24 24 24v16h16v-16c13.2 0 24-10.8 24-24 0-13.2-10.8-24-24-24h-16c-4.4 0-8-3.6-8-8 0-4.4 3.6-8 8-8z"/>
				<path id="Layer" class="s0" d="m80 352h16c4.4 0 8 3.6 8 8h16c0-13.2-10.8-24-24-24v-16h-16v16c-13.2 0-24 10.8-24 24 0 13.2 10.8 24 24 24h16c4.4 0 8 3.6 8 8 0 4.4-3.6 8-8 8h-16c-4.4 0-8-3.6-8-8h-16c0 13.2 10.8 24 24 24v16h16v-16c13.2 0 24-10.8 24-24 0-13.2-10.8-24-24-24h-16c-4.4 0-8-3.6-8-8 0-4.4 3.6-8 8-8z"/>
				<path id="Layer" class="s1" d="m20.2 217l7.6 14 375.4-202.7-18.1 31.7 13.8 8 38.9-68h-77.8v16h32.4z"/>
				<path id="Layer" fill-rule="evenodd" class="s2" d="m36.2 137l92.6-49.9c-0.5-2.3-0.8-4.7-0.8-7.1 0-17.6 14.4-32 32-32 17.6 0 32 14.4 32 32 0 17.6-14.4 32-32 32-9.5 0-17.9-4.2-23.7-10.8l-92.5 49.8zm107.8-56.9c0 8.8 7.2 16 16 16 8.8 0 16-7.2 16-16 0-8.8-7.2-16-16-16-8.8 0-16 7.2-16 16z"/>
				<path id="Layer" class="s2" d="m20.4 144.8l7.2 14.3-16 8-7.2-14.3z"/>
				<path id="Layer" fill-rule="evenodd" class="s2" d="m148.2 209l92.6-49.9c-0.5-2.3-0.8-4.7-0.8-7.1 0-17.6 14.4-32 32-32 17.6 0 32 14.4 32 32 0 17.6-14.4 32-32 32-9.5 0-17.9-4.2-23.7-10.8l-92.5 49.8zm107.8-56.9c0 8.8 7.2 16 16 16 8.8 0 16-7.2 16-16 0-8.8-7.2-16-16-16-8.8 0-16 7.2-16 16z"/>
				<path id="Layer" class="s2" d="m139.6 231.2l-16 8-7.2-14.4 16-8z"/>
			</g>
		</g>
	</g>
</svg>