<svg version="1.2" xmlns="http://www.w3.org/2000/svg" viewBox="0 0 64 64" width="64" height="64">
	<title>discount-tag-discount-ecommerce-svgrepo-com (1)-svg</title>
	<style>
		.s0 { fill: #000000 } 
		.s1 { fill: #d96704 } 
		.s2 { fill: #1992d4 } 
	</style>
	<g id="_05_discount_tag">
		<path id="Layer" fill-rule="evenodd" class="s0" d="m55.1 25.1q0.1 0.3 0.2 0.6 0.1 0.3 0.1 0.6 0.1 0.3 0.1 0.6v30.1q0 0.1-0.1 0.2 0 0.2-0.1 0.3-0.1 0.1-0.2 0.2-0.1 0.1-0.2 0.2-2.8 1.3-5.8 1.9-3.1 0.7-6.2 0.7-3.1 0-6.1-0.7-3-0.6-5.8-1.9-0.1-0.1-0.2-0.2-0.1-0.1-0.2-0.2-0.1-0.1-0.1-0.3-0.1-0.1-0.1-0.2v-9.7l-3.7 6.1q0 0.1-0.1 0.2-0.1 0.1-0.2 0.1-0.1 0.1-0.2 0.1-0.2 0.1-0.3 0.1 0 0-0.1 0 0 0 0 0 0 0-0.1 0 0 0 0 0-1.4-0.3-2.7-0.8-1.3-0.4-2.5-1-1.3-0.5-2.4-1.2-1.2-0.7-2.3-1.6-1.1-0.8-2.1-1.8-1-1-1.9-2-0.9-1.1-1.7-2.3-0.8-1.1-1.4-2.4-0.1-0.1-0.1-0.2-0.1-0.1-0.1-0.3 0-0.1 0.1-0.2 0-0.2 0.1-0.3l15.4-22.1q0.1-0.2 0.3-0.4 0.2-0.2 0.4-0.4 0.2-0.2 0.5-0.3 0.2-0.1 0.5-0.3l6.9-3c0.2-2.7 1.3-5.2 3.3-7.1 1.9-1.8 4.5-2.8 7.2-2.7 2.6 0.1 5.2 1.2 7.1 3.1 1.8 1.9 2.9 4.4 2.9 7.1q0 0 0 0.1 0 0 0 0.1 0 0 0 0-0.1 0.1-0.1 0.1 0 0.7-0.1 1.4-0.1 0.7-0.3 1.4-0.2 0.7-0.5 1.3-0.3 0.6-0.7 1.2l3.3 5.2q0.1 0.3 0.3 0.6zm-15-19.1q-1.3 0.5-2.4 1.4-1.2 1-1.9 2.2-0.7 1.3-1 2.7l0.6-0.2q0.5-0.2 1.1-0.3 0.6-0.1 1.2-0.1 0.7 0.1 1.2 0.3 0.6 0.2 1.1 0.5 0.3-0.1 0.5-0.2 0.2 0 0.5-0.1 0.2 0 0.5 0 0.2-0.1 0.5-0.1h1.8q0.7 0 1.4 0.2 0.7 0.2 1.3 0.5 0.6 0.4 1.1 0.9 0.5 0.4 0.9 1l1.8 2.7q0.2-0.4 0.3-0.8 0.2-0.4 0.3-0.9 0.1-0.4 0.2-0.9 0-0.4 0-0.9 0 0 0 0 0.1-0.1 0.1-0.1 0 0 0 0 0 0 0-0.1 0-1.6-0.7-3.1-0.6-1.5-1.7-2.7-1.2-1.1-2.7-1.8-1.5-0.6-3.2-0.6-1.4 0-2.8 0.5zm-9.6 20.7q0-0.3 0.1-0.6 0.1-0.3 0.2-0.6 0.1-0.2 0.3-0.5l6.1-10.2q0.1-0.1 0.2-0.2 0.1-0.2 0.2-0.3 0.1-0.1 0.2-0.3 0.1-0.1 0.2-0.2-0.2-0.1-0.4-0.1-0.3 0-0.5 0-0.3 0-0.5 0.1-0.2 0-0.4 0.1l-9.6 4.3q-0.2 0-0.3 0.1-0.1 0.1-0.2 0.2-0.1 0.1-0.2 0.2-0.1 0.1-0.2 0.2l-15 21.5q0.6 1.1 1.3 2.1 0.7 1 1.5 1.9 0.8 0.9 1.7 1.8 0.8 0.8 1.8 1.5 0.9 0.7 1.9 1.4 1 0.6 2.1 1.1 1.1 0.5 2.2 0.9 1.1 0.4 2.2 0.6l5-8.3v-16.1q0-0.3 0.1-0.6zm23 0.2q0-0.1-0.1-0.3 0-0.2 0-0.4-0.1-0.1-0.2-0.3 0-0.1-0.1-0.3l-3-4.6q-0.8 0.8-1.9 1.5-1 0.6-2.2 1-1.1 0.3-2.4 0.4-1.2 0.1-2.4-0.1 0.2 0.3 0.4 0.6 0.2 0.3 0.5 0.5 0.3 0.3 0.7 0.4 0.3 0.1 0.7 0.1 0.4 0 0.7 0.3 0.3 0.3 0.3 0.7 0 0.4-0.3 0.7-0.3 0.3-0.7 0.3c-1.2 0-2.3-0.5-3.1-1.3-0.9-0.9-1.3-2-1.3-3.2 0-1.2 0.4-2.3 1.3-3.1 0.8-0.9 1.9-1.3 3.1-1.3q0.4 0 0.7 0.3 0.3 0.3 0.3 0.7 0 0.4-0.3 0.7-0.3 0.3-0.7 0.3-0.3 0-0.6 0.1-0.3 0.1-0.6 0.2-0.3 0.2-0.5 0.4-0.3 0.3-0.4 0.6 0.2 0 0.4 0 0.2 0.1 0.4 0.1 0.1 0 0.3 0 0.2 0 0.4 0 0.9 0 1.7-0.1 0.9-0.2 1.7-0.6 0.8-0.3 1.5-0.8 0.6-0.5 1.2-1.2l-2.2-3.4q-0.2-0.4-0.5-0.7-0.4-0.3-0.8-0.5-0.4-0.2-0.8-0.3-0.4-0.2-0.9-0.2h-1.8q-0.5 0-0.9 0.2-0.5 0.1-0.9 0.3-0.4 0.2-0.7 0.6-0.4 0.3-0.6 0.7l-6.1 10.1q-0.1 0.2-0.2 0.3 0 0.2-0.1 0.3 0 0.2-0.1 0.4 0 0.1 0 0.3v29q2.5 1.1 5.2 1.6 2.6 0.6 5.3 0.6 2.8 0 5.4-0.6 2.7-0.5 5.2-1.6z"/>
		<path id="Layer" fill-rule="evenodd" class="s1" d="m39.6 32.5q0.6 0.3 1.1 0.8 0.4 0.4 0.7 1 0.2 0.6 0.2 1.3c0 1.3-0.8 2.5-2 3-1.2 0.6-2.6 0.3-3.6-0.7-0.9-0.9-1.2-2.3-0.7-3.6 0.5-1.2 1.7-2 3-2q0.7 0 1.3 0.2zm-0.8 4.3q0.3-0.1 0.5-0.3 0.1-0.2 0.2-0.4 0.1-0.2 0.1-0.5c0-0.5-0.3-1-0.8-1.2-0.4-0.2-1-0.1-1.4 0.3-0.3 0.3-0.5 0.9-0.3 1.4 0.2 0.5 0.7 0.8 1.2 0.8q0.3 0 0.5-0.1z"/>
		<path id="Layer" fill-rule="evenodd" class="s1" d="m48.8 44.1q0.6 0.2 1.1 0.7 0.4 0.4 0.7 1.1 0.2 0.6 0.2 1.2c0 1.4-0.8 2.6-2 3.1-1.2 0.5-2.7 0.2-3.6-0.8-0.9-0.9-1.2-2.3-0.7-3.6 0.5-1.2 1.7-2 3-2q0.7 0 1.3 0.3zm-0.8 4.2q0.3-0.1 0.5-0.3 0.2-0.1 0.3-0.4 0-0.2 0-0.5c0.1-0.5-0.3-1-0.8-1.2-0.4-0.2-1-0.1-1.4 0.3-0.4 0.4-0.5 0.9-0.3 1.4 0.2 0.5 0.7 0.8 1.3 0.8q0.2 0 0.4-0.1z"/>
		<path id="Layer" class="s1" d="m48.7 33.7q-0.2-0.2-0.4-0.2-0.1-0.1-0.3 0-0.2 0-0.4 0.1-0.2 0.1-0.3 0.2l-10.3 12.7q-0.2 0.3-0.2 0.7 0.1 0.4 0.4 0.7 0.3 0.3 0.7 0.2 0.4 0 0.7-0.4l10.2-12.6q0.2-0.2 0.2-0.4 0.1-0.2 0.1-0.4-0.1-0.2-0.2-0.3-0.1-0.2-0.2-0.3z"/>
		<path id="Layer" class="s2" d="m23.5 41.2q-0.3-0.2-0.8-0.2-0.4 0-0.6 0.3-0.3 0.4-0.3 0.8 0.1 0.4 0.4 0.7l2.9 2.4q0.1 0 0.2 0.1 0.1 0 0.1 0 0.1 0.1 0.2 0.1 0.1 0 0.2 0 0.3 0 0.6-0.2 0.2-0.2 0.3-0.5 0.1-0.3 0-0.6 0-0.3-0.3-0.5z"/>
		<path id="Layer" class="s2" d="m17.6 36.4q-0.3-0.2-0.7-0.2-0.4 0-0.7 0.3-0.3 0.3-0.3 0.7 0.1 0.4 0.4 0.7l2.7 2.4q0.3 0.3 0.7 0.3 0.5-0.1 0.7-0.4 0.3-0.3 0.3-0.7-0.1-0.4-0.4-0.7z"/>
	</g>
</svg>