<svg version="1.2" xmlns="http://www.w3.org/2000/svg" viewBox="0 0 512 512" width="512" height="512">
	<title>home-owners-insurance-calculator-icon-svg</title>
	<style>
		.s0 { fill: #1992d4 } 
		.s1 { fill: #4fc4d3 } 
		.s2 { fill: #999999 } 
		.s3 { fill: #ff8c78 } 
		.s4 { fill: #df7a6e } 
		.s5 { fill: #ffd6c4 } 
		.s6 { fill: #d96704 } 
		.s7 { fill: #ffd791 } 
		.s8 { fill: #f8be73 } 
		.s9 { fill: #000000 } 
	</style>
	<path id="Layer" class="s0" d="m409.9 454.8h-307.8v-265.1l153.9-153.9 153.9 153.9z"/>
	<g id="Layer">
		<path id="Layer" class="s1" d="m102.1 378.8v76h307.8v-101.1l-248 58.3z"/>
		<path id="Layer" class="s1" d="m101.4 189.7l153.9-153.9 29.9 29.9-183.8 183.9z"/>
	</g>
	<path id="Layer" class="s2" d="m476.3 225.9l-205.2-205.2q0 0 0 0c-4.1-4.1-9.4-6.2-14.7-6.3q-0.2 0-0.4 0-0.2 0-0.4 0c-5.3 0.1-10.6 2.2-14.7 6.3q0 0 0 0l-205.3 205.2c-8.3 8.4-8.3 21.9 0 30.2 4.2 4.2 9.7 6.3 15.2 6.3 5.4 0 10.9-2.1 15.1-6.3l190.1-190.1 190.1 190.1c4.2 4.2 9.7 6.3 15.1 6.3 5.5 0 11-2.1 15.1-6.3 8.4-8.3 8.4-21.8 0-30.2z"/>
	<path id="Layer" class="s3" d="m256 201.6c-36.9-24.7-73.8-8.4-73.8 25.6 0 49.2 73.8 80.2 73.8 80.2 0 0 73.8-31 73.8-80.2 0-34-36.9-50.3-73.8-25.6z"/>
	<g id="Layer">
		<path id="Layer" class="s4" d="m287 201.6c6.5-4.4 13-7.4 19.3-9.3-9.9-3.6-22-3.5-34.8 1.2 5.1 1.9 10.3 4.6 15.5 8.1z"/>
		<path id="Layer" class="s4" d="m213.2 227.2c0-17.2 9.5-29.8 23.5-34.9-29.4-9.1-54.5 6.9-54.5 34.9 0 49.2 73.8 80.2 73.8 80.2 0 0 6.4-2.7 15.5-7.8-21.6-12.1-58.3-37.7-58.3-72.4z"/>
	</g>
	<path id="Layer" class="s5" d="m294.5 241c-7.1 0-12.9-5.7-12.9-12.8 0-7.1 5.8-12.8 12.9-12.8 7.1 0 12.8 5.7 12.8 12.8 0 7.1-5.7 12.8-12.8 12.8z"/>
	<g id="Layer">
		<path id="Layer" class="s6" d="m435.6 369.3l-128.3-25.7h-102.6v27.8c0 17.7 14.3 32.1 32.1 32.1h96.2v0.4l-171.1 42.4-118.4-58.4c-13.1-5.4-28.1 0.8-33.5 13.9-5.5 13.1 0.8 28.1 13.8 33.5l121 62.3h188.2l102.6-34.2h68.4v-94.1h-68.4z"/>
		<path id="Layer" class="s7" d="m333 403.9l-32.9 8.2h32.9z"/>
	</g>
	<g id="Layer">
		<path id="Layer" class="s8" d="m205.3 377.8c3 14.7 15.9 25.7 31.5 25.7h96.2v-25.7z"/>
		<path id="Layer" class="s8" d="m427 437.7l-94 34.2h-188.2l-134.6-70.5q-0.1 0.2-0.2 0.4c-5.5 13.1 0.8 28.1 13.8 33.5l121 62.3h188.2l102.6-34.2h68.4v-25.4z"/>
	</g>
	<path id="Layer" fill-rule="evenodd" class="s9" d="m314.9 187.4c14.6 7.7 22.9 22.3 22.9 39.8 0 53.9-75.5 86.2-78.7 87.5-2 0.9-4.2 0.9-6.2 0-3.2-1.3-78.7-33.6-78.7-87.5 0-17.5 8.3-32.1 22.8-39.8 16.9-9.1 38.6-7.2 59 4.7 20.4-11.9 42.1-13.8 58.9-4.7zm6.9 39.8c0-11.6-5.1-20.7-14.4-25.7-12.8-6.9-30.4-4.3-47 6.7-2.6 1.8-6.2 1.8-8.9 0-10.4-6.9-21.2-10.5-30.9-10.5-5.8 0-11.2 1.2-16 3.8-9.3 5-14.4 14.1-14.4 25.7 0 38 52.4 65 65.8 71.4 13.4-6.4 65.8-33.5 65.8-71.4z"/>
	<path id="Layer" class="s9" d="m504 361.3h-67.6l-18.5-3.7v-56.7c0-4.4-3.6-8-8-8-4.4 0-8 3.6-8 8v53.5l-93-18.6q-0.8-0.2-1.6-0.2h-102.6c-4.4 0-8 3.6-8 8v27.8c0 22.1 18 40.1 40.1 40.1h32.1l-106.1 26.3-52.7-26v-188.5l145.9-145.9 145.9 145.9v34.8c0 4.5 3.6 8 8 8 4.4 0 8-3.5 8-8v-18.8l22.5 22.5c9.3 9.3 24 11.3 35.4 4.8 10.3-5.9 16.1-17.7 14.6-29.4-0.9-6.4-3.8-12.4-8.4-17l-205.2-205.2c-5.6-5.2-12.5-8.4-20.2-8.6-7.9-0.1-15.9 3-21.4 8.7l-130.2 130.2c-3.2 3.1-3.2 8.2 0 11.3 3.1 3.1 8.2 3.1 11.3 0l130.2-130.2q0.1-0.1 0.1-0.1c2.4-2.4 5.7-3.8 9.2-3.9q0.2 0 0.4 0c3.5 0.1 6.8 1.5 9.2 3.9q0 0.1 0 0.1l205.3 205.2c5.1 5.1 5.1 13.7 0 18.9-5.2 5.1-13.8 5.1-18.9 0l-190.1-190.1c-3.2-3.2-8.2-3.2-11.4 0l-190.1 190.1c-5.1 5.1-13.7 5.1-18.9 0-5.1-5.2-5.1-13.8 0-18.9l44.8-44.8c3.1-3.1 3.1-8.2 0-11.3-3.2-3.1-8.2-3.1-11.4 0l-44.7 44.7c-8.1 8.1-10.8 20.5-6.7 31.2 4.4 11.8 16.3 19.6 28.8 19 7.3-0.3 14.3-3.4 19.5-8.6l22.5-22.5v164.6c0 0-47.4-23.3-47.5-23.4-8.3-3.4-17.5-3.4-25.8 0-8.3 3.5-14.8 9.9-18.2 18.2-7.1 17.1 0.9 36.7 17.9 43.9l120.7 62.1c1.1 0.6 2.4 0.9 3.6 0.9h188.2q1.3 0 2.5-0.4l34.2-11.4c4.2-1.4 6.5-6 5.1-10.2-1.4-4.2-6-6.4-10.2-5l-32.9 10.9h-184.9c0 0-119.7-61.5-119.9-61.6-9-3.7-13.2-14-9.5-23 3.7-8.9 13.9-13.2 22.8-9.6l118.2 58.1c1.7 0.9 3.6 1.1 5.5 0.6l171-42.3c3.6-0.9 6.1-4.1 6.1-7.8v-0.4c0-4.4-3.6-8-8-8h-96.2c-13.3 0-24.1-10.8-24.1-24.1v-19.7h93.8l127.5 25.5q0.8 0.1 1.6 0.1h60.4v78h-60.4q-1.3 0-2.6 0.5l-25.6 8.5c-4.2 1.4-6.5 5.9-5.1 10.1 1.4 4.2 6 6.5 10.2 5.1l24.4-8.1h67.1c4.4 0 8-3.6 8-8v-94.1c0-4.4-3.6-8-8-8z"/>
</svg>