<svg version="1.2" xmlns="http://www.w3.org/2000/svg" viewBox="0 0 393 393" width="393" height="393">
	<title>hourly-wage-calculator-icon-svg</title>
	<style>
		.s0 { fill: #ffffff } 
		.s1 { fill: #1992d4 } 
		.s2 { fill: #ffc10d } 
		.s3 { fill: #d96704 } 
		.s4 { fill: #000000 } 
	</style>
	<path id="Layer" class="s0" d="m370.8 275.1c0-52.7-42.8-95.7-95.7-95.7-52.8 0-95.6 43-95.6 95.7 0 52.7 42.9 95.6 95.7 95.6 52.8 0 95.6-42.8 95.6-95.6z"/>
	<path id="Layer" class="s1" d="m200.3 184.8c-0.3-0.2-0.5-0.4-0.7-0.5-9.4-5.6-19.4-10.3-29.9-13.7l-38.3 67.2c-4.2 7.4-14.8 7.4-19 0l-38.3-67.3c-10.4 3.5-20.4 8.1-29.9 13.7-13.8 8.3-22.4 23.4-22.4 39.5v43.4h136.4c2.2-33 18-62.4 42.1-82.3z"/>
	<g id="Layer">
		<path id="Layer" class="s2" d="m275.1 201.4c-40.6 0-73.7 33-73.7 73.7 0 40.7 33.1 73.9 73.8 73.9 40.7 0 73.8-33.2 73.8-73.9 0-40.6-33.2-73.7-73.9-73.7z"/>
		<path id="Layer" class="s3" d="m121.8 21.8c-23.2 0-42 18.9-42 42 0 23.2 18.9 42 42 42 23.1 0 42-18.9 42-42 0-23.1-18.9-42-42-42z"/>
	</g>
	<g id="Layer">
		<path id="Layer" fill-rule="evenodd" class="s4" d="m392.6 275.1c0 64.7-52.7 117.4-117.5 117.4-60 0-109.7-45.3-116.5-103.7h-147.7c-6.1 0-10.9-4.9-10.9-10.9v-54.3c0-23.6 12.6-45.9 32.9-58 13.5-8.2 28.1-14.3 43.4-18.5 4.9-1.3 9.9 0.7 12.4 5.1l33.1 58.2 33.2-58.2c2.4-4.4 7.5-6.4 12.3-5.1 15.3 4.2 29.9 10.3 43.4 18.5 3 1.8 5.9 3.8 8.6 6.2 16.7-9.1 35.7-14.2 55.8-14.2 64.8 0 117.5 52.7 117.5 117.5zm-192.2-90.5c-0.2-0.1-0.4-0.3-0.6-0.4-9.5-5.7-19.6-10.2-30-13.7l-38.3 67.3c-4.2 7.3-14.7 7.3-19 0l-38.3-67.3c-10.5 3.4-20.5 8.1-29.9 13.7-13.9 8.3-22.4 23.4-22.4 39.4v43.4h136.3c2.2-33 18-62.4 42.2-82.4zm170.4 90.5c0-52.7-42.8-95.7-95.6-95.7-52.8 0-95.7 43-95.7 95.7 0 52.8 42.9 95.6 95.6 95.6 52.9 0 95.7-42.9 95.7-95.6z"/>
		<path id="Layer" class="s4" d="m275.1 243.2c5.9 0 10.6 4.7 10.6 10.5 0 6 4.8 11 10.9 11 6.1 0 10.9-4.9 10.9-11 0-13.9-9-25.8-21.4-30.3v-4.2c0-6.1-4.8-11-10.9-11-6 0-10.9 4.9-10.9 11v4.2c-12.4 4.4-21.4 16.3-21.4 30.3 0 17.8 14.5 32.4 32.3 32.4 5.8 0 10.5 4.7 10.5 10.5 0 5.8-4.7 10.5-10.5 10.5-5.8 0-10.5-4.7-10.5-10.5 0-6-4.9-10.9-11-10.9-6 0-10.9 4.8-10.9 10.9 0 14 9 25.9 21.4 30.4v4.2c0 6 4.9 10.9 10.9 10.9 6.1 0 11-4.8 11-10.9v-4.3c12.4-4.5 21.4-16.4 21.4-30.4 0-17.8-14.5-32.4-32.4-32.4-5.8 0-10.5-4.7-10.5-10.5 0-5.8 4.8-10.4 10.5-10.4z"/>
		<path id="Layer" fill-rule="evenodd" class="s4" d="m58 63.9c0-35.2 28.6-63.8 63.8-63.8 35.2 0 63.9 28.6 63.8 63.8 0 35.1-28.6 63.8-63.8 63.8-35.2 0-63.9-28.7-63.8-63.8zm21.8 0c0 23.1 18.9 42 42 42 23.1 0 42-18.9 42-42 0-23.2-18.8-42-42-42-23.2 0-42 18.8-42 42z"/>
	</g>
</svg>