<svg version="1.2" xmlns="http://www.w3.org/2000/svg" viewBox="0 0 196 196" width="196" height="196">
	<title>investment-svgrepo-com-svg</title>
	<style>
		.s0 { fill: #000000 } 
		.s1 { fill: #1992d4 } 
		.s2 { fill: #d96704 } 
	</style>
	<g id="Layer">
		<g id="Layer">
			<g id="Layer">
				<path id="Layer" fill-rule="evenodd" class="s0" d="m159.4 94.7v24.3c0 1.9-1.6 3.5-3.5 3.5h-7.2l-6.2 69.8c-0.2 1.8-1.7 3.2-3.5 3.2h-87.8c-1.8 0-3.3-1.4-3.4-3.2l-6.2-69.8h-7.3c-1.9 0-3.5-1.6-3.5-3.5v-24.3c0-1.9 1.6-3.5 3.5-3.5h54.9c1.4-6.1 8.5-32.5 29.9-45.5 1.7-1 3.8-0.5 4.8 1.2 1 1.6 0.5 3.7-1.2 4.7-17.4 10.7-24.4 32.2-26.4 39.6h59.6c1.9 0 3.5 1.6 3.5 3.5zm-17.7 27.8h-93.2l5.9 66h81.4zm10.8-24.3h-114.7v17.4h114.7c0 0 0-17.4 0-17.4z"/>
				<path id="Layer" fill-rule="evenodd" class="s1" d="m66.4 54.1c-9.3-10.6-5.3-28.5-5.1-29.2 0.3-1.5 1.6-2.6 3.1-2.7 0.7-0.1 19-1.5 28.2 9.1 4.4 5 7.3 10.9 8.2 16.4 1 6.2-0.5 11.4-4.2 14.7-2.4 2.1-5.5 3.1-9 3.1q-2.9 0-6.1-1c-5.4-1.7-10.8-5.4-15.1-10.4zm5.2-4.6c3.5 4.1 7.9 7.1 12 8.4 2.1 0.6 5.9 1.4 8.4-0.8 2.5-2.2 2.3-6.1 1.9-8.2-0.7-4.3-3.1-9-6.6-13-5.1-6-15-6.8-19.7-6.8-0.6 4.6-1.1 14.5 4 20.4z"/>
				<path id="Layer" class="s2" d="m149 31.3c-4.8 0-8.7-3.9-8.7-8.7 0-4.8 3.9-8.7 8.7-8.7 4.8 0 8.7 3.9 8.7 8.7 0 1.9 1.5 3.5 3.4 3.5 2 0 3.5-1.6 3.5-3.5 0-8-6.1-14.6-13.9-15.5v-3.6c0-1.9-1.5-3.5-3.5-3.5-1.9 0-3.4 1.6-3.4 3.5v4.4c-6.1 2.2-10.5 7.9-10.5 14.7 0 8.6 7.1 15.6 15.7 15.6 4.8 0 8.7 3.9 8.7 8.7 0 4.8-3.9 8.7-8.7 8.7-4.8 0-8.7-3.9-8.7-8.7 0-1.9-1.6-3.5-3.5-3.5-1.9 0-3.5 1.6-3.5 3.5 0 6.8 4.4 12.5 10.5 14.7v5.9c0 1.9 1.5 3.4 3.4 3.4 2 0 3.5-1.5 3.5-3.4v-5.1c7.8-0.9 13.9-7.5 13.9-15.5 0-8.6-7-15.6-15.6-15.6z"/>
			</g>
		</g>
	</g>
</svg>