<?xml version="1.0" encoding="iso-8859-1"?>
<!-- Uploaded to: SVG Repo, www.svgrepo.com, Generator: SVG Repo Mixer Tools -->
<svg height="800px" width="800px" version="1.1" id="Layer_1" xmlns="http://www.w3.org/2000/svg" xmlns:xlink="http://www.w3.org/1999/xlink" 
	 viewBox="0 0 512.001 512.001" xml:space="preserve">
<path style="fill:#959CB3;" d="M238.897,469.779v25.653c0,4.722,3.829,8.551,8.551,8.551h17.102c4.722,0,8.551-3.829,8.551-8.551
	v-25.653H238.897z"/>
<path style="fill:#C7CFE2;" d="M307.306,392.819H204.693v49.287c0,6.477,3.66,12.4,9.454,15.297l24.75,12.376h34.204l24.75-12.376
	c5.794-2.897,9.454-8.818,9.454-15.297V392.819z"/>
<path style="fill:#AFB9D2;" d="M247.449,392.819h-42.755v49.287c0,6.479,3.66,12.4,9.454,15.297l24.75,12.376h31.354l-16.5-12.376
	c-3.863-2.897-6.302-8.818-6.302-15.297L247.449,392.819L247.449,392.819z"/>
<path style="fill:#FFDC64;" d="M427.022,179.042c0-97.538-81.652-176.004-180.331-170.775
	c-90.85,4.814-163.214,82.73-161.688,173.694c1.09,65.041,38.563,121.103,92.896,149.047c11.43,5.878,18.244,18.042,18.244,30.894
	v22.366c0,4.722,3.829,8.551,8.551,8.551h102.613c4.722,0,8.551-3.829,8.551-8.551v-23.061c0-12.703,7.013-24.418,18.307-30.232
	C389.275,302.603,427.022,245.297,427.022,179.042z"/>
<circle style="fill:#FFF082;" cx="255.999" cy="179.039" r="136.818"/>
<path d="M379.183,49.117C343.187,14.977,295.98-2.376,246.266,0.262C151.328,5.293,75.39,86.863,76.987,182.096
	c1.106,65.97,38.369,125.761,97.246,156.04c8.44,4.341,13.893,13.669,13.893,23.766v22.366c0,6.228,3.458,11.659,8.551,14.489
	v43.351c0,9.575,5.321,18.184,13.886,22.467l20.318,10.16v20.699c0,9.136,7.432,16.568,16.568,16.568h17.102
	c9.136,0,16.568-7.432,16.568-16.568v-20.699l20.318-10.16c8.565-4.282,13.886-12.892,13.886-22.467v-43.351
	c5.093-2.829,8.551-8.26,8.551-14.489v-23.061c0-9.819,5.349-18.672,13.961-23.105c59.957-30.867,97.204-91.815,97.204-159.06
	C435.038,129.419,415.203,83.277,379.183,49.117z M299.29,419.007h-86.58v-18.171h86.58V419.007z M264.551,495.967h-17.102
	c-0.295,0-0.534-0.239-0.534-0.534v-17.637h18.171v17.637C265.085,495.727,264.846,495.967,264.551,495.967z M294.268,450.234
	l-23.058,11.529H240.79l-23.057-11.529c-3.098-1.549-5.023-4.664-5.023-8.127v-7.066h86.58v7.066
	C299.29,445.571,297.366,448.686,294.268,450.234z M330.496,323.847c-13.974,7.194-22.654,21.509-22.654,37.36v23.061
	c0,0.295-0.239,0.534-0.534,0.534H204.694c-0.295,0-0.534-0.239-0.534-0.534v-22.366c0-16.287-8.657-30.856-22.593-38.023
	c-53.611-27.572-87.541-82.003-88.548-142.051C91.565,95.12,160.692,20.853,247.116,16.273c3.005-0.159,5.99-0.238,8.972-0.238
	c41.958,0,81.465,15.697,112.063,44.715c32.794,31.102,50.854,73.113,50.854,118.293
	C419.005,240.255,385.09,295.741,330.496,323.847z"/>
<path d="M299.29,150.984c0,4.427,3.589,8.017,8.017,8.017s8.017-3.589,8.017-8.017c0-16.264-13.836-29.952-34.204-36.191v-12.71
	c0-4.427-3.589-8.017-8.017-8.017c-4.427,0-8.017,3.589-8.017,8.017v9.531c-2.957-0.293-5.989-0.446-9.086-0.446
	c-3.097,0-6.129,0.153-9.086,0.446v-9.531c0-4.427-3.589-8.017-8.017-8.017c-4.427,0-8.017,3.589-8.017,8.017v12.71
	c-20.369,6.239-34.204,19.927-34.204,36.191c0,21.524,14.563,32.842,34.204,40.852v59.955
	c-10.467-4.192-18.171-10.895-18.171-19.037c0-4.427-3.589-8.017-8.017-8.017s-8.017,3.589-8.017,8.017
	c0,16.264,13.836,29.952,34.204,36.191v12.71c0,4.427,3.589,8.017,8.017,8.017c4.427,0,8.017-3.589,8.017-8.017v-9.531
	c2.957,0.293,5.989,0.446,9.086,0.446c3.097,0,6.129-0.153,9.086-0.446v9.531c0,4.427,3.589,8.017,8.017,8.017
	c4.427,0,8.017-3.589,8.017-8.017v-12.71c20.369-6.239,34.204-19.927,34.204-36.191c0-21.524-14.563-32.842-34.204-40.852v-59.955
	C291.585,136.14,299.29,142.843,299.29,150.984z M212.71,150.984c0-8.142,7.705-14.845,18.171-19.037v42.3
	C217.576,167.77,212.71,160.888,212.71,150.984z M256,256.536c-3.005,0-6.06-0.216-9.086-0.619V197.49
	c2.248,0.702,4.521,1.392,6.816,2.068c4.114,1.214,7.886,2.398,11.355,3.568v52.792C262.059,256.32,259.005,256.536,256,256.536z
	 M299.29,232.753c0,8.142-7.705,14.845-18.171,19.037v-42.299C294.423,215.968,299.29,222.85,299.29,232.753z M265.085,186.248
	c-2.248-0.702-4.521-1.391-6.816-2.068c-4.114-1.214-7.886-2.399-11.355-3.568V127.82c3.026-0.403,6.081-0.619,9.086-0.619
	s6.06,0.216,9.086,0.619V186.248z"/>
</svg>