<svg version="1.2" xmlns="http://www.w3.org/2000/svg" viewBox="0 0 512 512" width="512" height="512">
	<title>mortgage-loan-mortgage-svgrepo-com-svg</title>
	<style>
		.s0 { fill: #ffd791 } 
		.s1 { fill: #d96704 } 
		.s2 { fill: #cccccc } 
		.s3 { fill: #fafafa } 
		.s4 { fill: #1992d4 } 
		.s5 { fill: #96ca63 } 
		.s6 { fill: #808080 } 
		.s7 { fill: #666666 } 
		.s8 { fill: #6ddae1 } 
		.s9 { fill: #4fc4d3 } 
		.s10 { fill: #000000 } 
	</style>
	<g id="Layer">
		<path id="Layer" class="s0" d="m281.7 161.9c-42.6 0-77-34.4-77-76.9 0-42.6 34.4-77 77-77 42.5 0 76.9 34.4 76.9 77 0 42.5-34.4 76.9-76.9 76.9z"/>
		<path id="Layer" class="s0" d="m281.7 161.9c-42.6 0-77-34.4-77-76.9 0-42.6 34.4-77 77-77 42.5 0 76.9 34.4 76.9 77 0 42.5-34.4 76.9-76.9 76.9z"/>
	</g>
	<path id="Layer" class="s1" d="m304.1 134.1c-42.5 0-77-34.4-77-76.9 0-11.9 2.7-23.1 7.5-33.1-18.2 14.1-29.9 36.1-29.9 60.9 0 42.5 34.5 76.9 77 76.9 30.6 0 57.1-17.9 69.4-43.8-13 10-29.3 16-47 16z"/>
	<path id="Layer" class="s2" d="m8 307.3h239.4v196.7h-239.4z"/>
	<path id="Layer" class="s3" d="m247.4 307.3h256.6v196.7h-256.6z"/>
	<path id="Layer" class="s4" d="m504 307.3h-256.6l-119.7-102.6h256.6z"/>
	<path id="Layer" class="s5" d="m247.4 307.3h-239.4l119.7-102.6z"/>
	<path id="Layer" class="s6" d="m85 367.2h85.5v136.8h-85.5z"/>
	<path id="Layer" class="s7" d="m85 367.2h25.6v136.8h-25.6z"/>
	<g id="Layer">
		<path id="Layer" class="s8" d="m298.8 367.2h51.3v85.5h-51.3z"/>
		<path id="Layer" class="s8" d="m401.4 367.2h51.3v85.5h-51.3z"/>
		<path id="Layer" class="s8" d="m401.4 367.2v36.3l36.3-36.3z"/>
		<path id="Layer" class="s8" d="m401.4 452.7h12.1l39.2-39.2v-16.4l-51.3 51.3z"/>
	</g>
	<g id="Layer">
		<path id="Layer" class="s4" d="m401.4 403.5v44.9l51.3-51.3v-29.9h-15z"/>
		<path id="Layer" class="s9" d="m452.7 452.7v-39.2l-39.2 39.2z"/>
		<path id="Layer" class="s4" d="m298.8 403.5v44.9l51.3-51.3v-29.9h-15z"/>
		<path id="Layer" class="s9" d="m350.1 452.7v-39.2l-39.2 39.2z"/>
	</g>
	<path id="Layer" class="s10" d="m281.7 170c46.8 0 84.9-38.2 84.9-85 0-16.9-4.9-33.2-14.3-47.2-2.4-3.7-7.4-4.7-11.1-2.2-3.7 2.4-4.7 7.4-2.2 11.1 7.6 11.3 11.6 24.6 11.6 38.3 0 38-30.9 68.9-68.9 68.9-38.1 0-69-30.9-69-68.9 0-38 30.9-69 69-69 13.7 0 26.9 4 38.2 11.6 3.7 2.5 8.7 1.5 11.2-2.2 2.4-3.6 1.4-8.6-2.2-11.1-14-9.4-30.3-14.3-47.2-14.3-46.9 0-85 38.1-85 85 0 46.8 38.1 85 85 85z"/>
	<path id="Layer" fill-rule="evenodd" class="s10" d="m289.7 54.5v22.5h6.9c10.3 0 18.7 8.4 18.7 18.7v17.1c0 10.3-8.4 18.7-18.7 18.7h-6.9v9.1c0 4.4-3.6 8-8 8-4.5 0-8.1-3.6-8.1-8v-9.1h-17.6c-4.4 0-8-3.6-8-8 0-4.5 3.6-8.1 8-8.1h17.6v-22.4h-6.9c-10.3 0-18.7-8.4-18.7-18.7v-17.1c0-10.3 8.4-18.7 18.7-18.7h6.9v-9.1c0-4.4 3.6-8 8.1-8 4.4 0 8 3.6 8 8v9.1h17.6c4.4 0 8 3.6 8 8 0 4.4-3.6 8-8 8zm0 38.5v22.4h7c1.4 0 2.6-1.2 2.6-2.6v-17.1c0-1.5-1.2-2.7-2.6-2.7zm-16.1-38.5h-6.9c-1.5 0-2.7 1.2-2.7 2.7v17.1c0 1.5 1.2 2.7 2.7 2.7h6.9z"/>
	<path id="Layer" fill-rule="evenodd" class="s10" d="m512 307.3v196.7c0 4.4-3.6 8-8 8h-496c-4.4 0-8-3.6-8-8v-34.2c0-4.4 3.6-8 8-8 4.4 0 8 3.6 8 8v26.2h61v-128.8c0-4.5 3.6-8.1 8-8.1h85.5c4.4 0 8 3.6 8 8.1v128.8h60.9v-180.7h-223.4v111.7c0 4.5-3.6 8-8 8-4.4 0-8-3.5-8-8v-119.7c0-2.3 1-4.6 2.8-6.1l119.7-102.6c1.4-1.2 3.4-1.9 5.2-1.9h256.6c1.9 0 3.7 0.7 5.2 1.9l119.7 102.6c1.5 1.3 2.5 3.3 2.8 5.3q0 0.4 0 0.8zm-286.2-8l-98.1-84-98 84zm-63.3 196.7v-120.8h-69.5v120.8zm333.5 0v-180.7h-43.3c-4.4 0-8-3.6-8-8 0-4.4 3.6-8 8-8h29.6l-101-86.6h-231.9l101 86.6h159.6c4.4 0 8 3.6 8 8 0 4.4-3.6 8-8 8h-154.5v180.7z"/>
	<path id="Layer" class="s10" d="m375.7 230.9h-162.5c-4.4 0-8 3.6-8 8 0 4.4 3.6 8 8 8h162.5c4.4 0 8-3.6 8-8 0-4.4-3.6-8-8-8z"/>
	<path id="Layer" fill-rule="evenodd" class="s10" d="m358.1 367.2v85.5c0 4.4-3.6 8-8 8h-51.3c-4.5 0-8.1-3.6-8.1-8v-85.5c0-4.5 3.6-8.1 8.1-8.1h51.3c4.4 0 8 3.6 8 8.1zm-16.1 8h-35.2v69.5h35.2z"/>
	<path id="Layer" fill-rule="evenodd" class="s10" d="m460.7 367.2v85.5c0 4.4-3.6 8-8 8h-51.3c-4.5 0-8-3.6-8-8v-85.5c0-4.5 3.5-8.1 8-8.1h51.3c4.4 0 8 3.6 8 8.1zm-16 8h-35.3v69.5h35.3z"/>
	<path id="Layer" class="s10" d="m110.6 427.6c-4.4 0-8 3.5-8 8v8.5c0 4.5 3.6 8 8 8 4.5 0 8-3.5 8-8v-8.5c0-4.5-3.5-8-8-8z"/>
	<path id="Layer" class="s10" d="m94.1 281.7c0 4.4 3.6 8 8 8h51.3c4.4 0 8-3.6 8-8 0-4.5-3.6-8.1-8-8.1h-51.3c-4.4 0-8 3.6-8 8.1z"/>
	<path id="Layer" class="s10" d="m102.6 256c0 4.4 3.6 8 8 8h34.2c4.5 0 8.1-3.6 8.1-8 0-4.4-3.6-8-8.1-8h-34.2c-4.4 0-8 3.6-8 8z"/>
</svg>