<?xml version="1.0" ?>
<!-- Uploaded to: SVG Repo, www.svgrepo.com, Generator: SVG Repo Mixer Tools -->
<svg width="800px" height="800px" viewBox="0 0 64 64" xmlns="http://www.w3.org/2000/svg">
<defs>
<style>.cls-1{fill:#f2f2fc;}.cls-2{fill:#61729b;}.cls-3{fill:#fdbf00;}</style>
</defs>
<title/>
<g id="finance">
<path class="cls-1" d="M30.678,40.726A1,1,0,0,1,28.99,40V16a1,1,0,0,1,1-1h11V5h-10V8a1,1,0,0,1-1,1h-8a1,1,0,0,1-1-1V5h-10V51h30V36.366L35.2,36.44ZM15.01,48a1,1,0,0,1-2,0V42a1,1,0,0,1,2,0Zm4,0a1,1,0,0,1-2,0V40a1,1,0,0,1,2,0Zm4,0a1,1,0,0,1-2,0V38.5a1,1,0,0,1,2,0Zm-5-26.232a5,5,0,0,1,1,9.9v1.87a1,1,0,0,1-2,0v-1.87a5.005,5.005,0,0,1-4-4.9,1,1,0,0,1,2,0,3,3,0,1,0,3-3,5,5,0,0,1-1-9.9V12a1,1,0,0,1,2,0v1.868a5.005,5.005,0,0,1,4,4.9,1,1,0,0,1-2,0,3,3,0,1,0-3,3ZM26.99,48a1,1,0,0,1-2,0V36a1,1,0,0,1,2,0Z"/>
<path class="cls-2" d="M10.99,59h30V53h-30Zm11-4h8a1,1,0,1,1,0,2h-8a1,1,0,0,1,0-2Z"/>
<rect class="cls-2" height="2" width="6" x="22.99" y="5"/>
<path d="M21.99,57h8a1,1,0,1,0,0-2h-8a1,1,0,0,0,0,2Z"/>
<path d="M14.01,41a1,1,0,0,0-1,1v6a1,1,0,0,0,2,0V42A1,1,0,0,0,14.01,41Z"/>
<path d="M18.01,39a1,1,0,0,0-1,1v8a1,1,0,0,0,2,0V40A1,1,0,0,0,18.01,39Z"/>
<path d="M22.01,37.5a1,1,0,0,0-1,1V48a1,1,0,0,0,2,0V38.5A1,1,0,0,0,22.01,37.5Z"/>
<path d="M25.99,35a1,1,0,0,0-1,1V48a1,1,0,0,0,2,0V36A1,1,0,0,0,25.99,35Z"/>
<path d="M18.01,15.768a3,3,0,0,1,3,3,1,1,0,0,0,2,0,5.005,5.005,0,0,0-4-4.9V12a1,1,0,0,0-2,0v1.868a5,5,0,0,0,1,9.9,3,3,0,1,1-3,3,1,1,0,0,0-2,0,5.005,5.005,0,0,0,4,4.9v1.87a1,1,0,0,0,2,0v-1.87a5,5,0,0,0-1-9.9,3,3,0,0,1,0-6Z"/>
<path class="cls-3" d="M30.99,17V37.674l3.116-2.955a1,1,0,0,1,.675-.274l18.229-.232V17ZM48,30.5H36a1,1,0,0,1,0-2H48a1,1,0,0,1,0,2Zm0-4H36a1,1,0,0,1,0-2H48a1,1,0,0,1,0,2Zm1-5a1,1,0,0,1-1,1H36a1,1,0,0,1,0-2H48A1,1,0,0,1,49,21.5Z"/>
<path d="M54.01,15H42.99V4a1,1,0,0,0-1-1h-32a1,1,0,0,0-1,1V60a1,1,0,0,0,1,1h32a1,1,0,0,0,1-1V36.34l11.033-.14a1,1,0,0,0,.987-1V16A1,1,0,0,0,54.01,15ZM40.99,59h-30V53h30Zm0-8h-30V5h10V8a1,1,0,0,0,1,1h8a1,1,0,0,0,1-1V5h10V15h-11a1,1,0,0,0-1,1V40a1,1,0,0,0,1.688.726L35.2,36.44l5.792-.074Zm-18-46h6V7h-6ZM53.01,34.213l-18.229.232a1,1,0,0,0-.675.274L30.99,37.674V17H53.01Z"/>
<path d="M36,20.5a1,1,0,0,0,0,2H48a1,1,0,0,0,0-2Z"/>
<path d="M48,24.5H36a1,1,0,0,0,0,2H48a1,1,0,0,0,0-2Z"/>
<path d="M48,28.5H36a1,1,0,0,0,0,2H48a1,1,0,0,0,0-2Z"/>
</g>
</svg>