<svg version="1.2" xmlns="http://www.w3.org/2000/svg" viewBox="0 0 496 496" width="496" height="496">
	<title>money-cash-svgrepo-com-svg</title>
	<style>
		.s0 { fill: #d96704 } 
		.s1 { fill: #000000 } 
		.s2 { fill: #1992d4 } 
	</style>
	<g id="Layer">
		<g id="Layer">
			<g id="Layer">
				<path id="Layer" class="s0" d="m240 349.7h16c8.8 0 16 7.1 16 16h16c0-17.7-14.4-32-32-32v-16h-16v16c-17.6 0-32 14.3-32 32 0 17.6 14.4 32 32 32h16c8.8 0 16 7.1 16 16 0 8.8-7.2 16-16 16h-16c-8.8 0-16-7.2-16-16h-16c0 17.6 14.4 32 32 32v16h16v-16c17.6 0 32-14.4 32-32 0-17.7-14.4-32-32-32h-16c-8.8 0-16-7.2-16-16 0-8.9 7.2-16 16-16z"/>
				<path id="Layer" fill-rule="evenodd" class="s1" d="m496 133.7v152l-33.8-45.1-129.5 88.9c12.1 17 19.3 37.7 19.3 60.2 0 57.3-46.7 104-104 104-57.3 0-104-46.7-104-104 0-22.5 7.2-43.2 19.3-60.2l-129.5-88.9-33.8 45.1v-152h144l-45.2 33.9 89.2 137.3c12.4-8.8 26.7-14.9 42.2-17.6l-44.1-176.3-58.4 11.7 120.3-120.4 120.3 120.4-58.4-11.7-44.1 176.3c15.5 2.7 29.8 8.8 42.2 17.6l89.2-137.3-45.2-33.9zm-249.7 152c0.5 0 1.1 0 1.7 0 0.6 0 1.2 0 1.7 0l48.4-193.4 21.6 4.3-71.7-71.6-71.7 71.6 21.6-4.3zm-72.7 31.4q1-1 2-2l-98.3-151.4 18.7-14.1h-80v88l14.2-18.9zm74.4-15.5c-48.5 0-88 39.5-88 88 0 48.5 39.5 88 88 88 48.6 0 88-39.5 88-88 0-48.5-39.4-88-88-88zm232-152h-80l18.8 14.1-98.4 151.4q1.1 1 2 2l143.4-98.4 14.2 18.9z"/>
				<path id="Layer" class="s2" d="m304 381.7h16v16h-16z"/>
				<path id="Layer" class="s2" d="m176 381.7h16v16h-16z"/>
			</g>
		</g>
	</g>
</svg>