<svg version="1.2" xmlns="http://www.w3.org/2000/svg" viewBox="0 0 513 513" width="513" height="513">
	<title>salary-calculator-icon-svg</title>
	<style>
		.s0 { fill: #5b7a7f } 
		.s1 { fill: #1992d4 } 
		.s2 { fill: #f4c064 } 
		.s3 { fill: #d96704 } 
		.s4 { fill: #ffa233 } 
		.s5 { fill: #ffc248 } 
		.s6 { fill: #000000 } 
	</style>
	<path id="Layer" class="s0" d="m245.2 277.6v86.4 118.6c0 12.2-10.1 22-22.3 21.5-11.7-0.4-20.8-10.3-20.8-22v-96.5c0-11.9-9.6-21.6-21.6-21.6-11.9 0-21.5 9.7-21.5 21.6v97c0 12.2-10.1 22-22.4 21.5-11.6-0.4-20.7-10.3-20.7-22v-118.1-86.4z"/>
	<path id="Layer" class="s1" d="m277.6 191.6v107.7h-194.1v-107.7c0-35.8 29-64.7 64.7-64.7h64.7c35.7 0 64.7 28.9 64.7 64.7z"/>
	<path id="Layer" class="s1" d="m180.5 299.3h-97v-107.7c0-35.8 29-64.7 64.7-64.7h32.3c0 0 0 172.4 0 172.4z"/>
	<path id="Layer" fill-rule="evenodd" class="s2" d="m180.5 8.3c-23.8 0-43.1 19.3-43.1 43.1 0 23.8 19.3 43.1 43.1 43.1 23.9 0 43.2-19.3 43.2-43.1 0-23.8-19.3-43.1-43.2-43.1zm-64.6 204.8h-32.4v118.6c0 11.9 9.7 21.5 21.6 21.5 11.9 0 21.6-9.6 21.6-21.5v-107.8c0-6-4.9-10.8-10.8-10.8zm215.6 64.7h-53.9v-64.7h-32.4c-5.9 0-10.8 4.8-10.8 10.8v75.4c0 12 9.7 21.6 21.6 21.6h75.5c11.9 0 21.5-9.6 21.5-21.6 0-11.9-9.6-21.5-21.5-21.5z"/>
	<path id="Layer" class="s3" d="m180.5 8.3v86.2c-23.8 0-43.1-19.3-43.1-43.1 0-23.8 19.3-43.1 43.1-43.1z"/>
	<path id="Layer" fill-rule="evenodd" class="s4" d="m406.9 191.6c11.9 0 21.6 9.6 21.6 21.5 0 11.9-9.7 21.6-21.6 21.6h-64.7c-11.9 0-21.5-9.7-21.5-21.6 0-11.9 9.6-21.5 21.5-21.5-11.9 0-21.5-9.7-21.5-21.6 0-11.9 9.6-21.6 21.5-21.6-11.9 0-21.5-9.6-21.5-21.5 0-11.9 9.6-21.6 21.5-21.6h64.7c11.9 0 21.6 9.7 21.6 21.6 0 11.9-9.7 21.5-21.6 21.5 11.9 0 21.6 9.7 21.6 21.6 0 11.9-9.7 21.6-21.6 21.6zm-67.9-172.2l63.7-11.2c11.7-2.1 22.9 5.7 24.9 17.5 2.1 11.7-5.7 22.9-17.4 24.9l-63.7 11.3c-11.8 2-22.9-5.8-25-17.5-2.1-11.7 5.8-22.9 17.5-25z"/>
	<path id="Layer" fill-rule="evenodd" class="s5" d="m428.5 213.1h-107.8c0-11.9 9.6-21.5 21.5-21.5h64.7c11.9 0 21.6 9.6 21.6 21.5zm0-43.1h-107.8c0-11.9 9.6-21.6 21.5-21.6h64.7c11.9 0 21.6 9.7 21.6 21.6zm0-43.1h-107.8c0-11.9 9.6-21.6 21.5-21.6h64.7c11.9 0 21.6 9.7 21.6 21.6zm-89.5-107.5l63.7-11.2c11.7-2.1 22.9 5.7 24.9 17.5l-106.1 18.7c-2.1-11.7 5.8-22.9 17.5-25z"/>
	<path id="Layer" fill-rule="evenodd" class="s6" d="m313.5 46c-2.8-16.1 8-31.5 24.1-34.3l35.6-6.3c4.4-0.8 8.6 2.2 9.3 6.6 0.8 4.4-2.1 8.6-6.5 9.3l-35.6 6.3c-3.6 0.6-6.6 2.6-8.7 5.6-2.1 2.9-2.9 6.5-2.2 10 0.6 3.6 2.5 6.7 5.5 8.7 2.9 2.1 6.5 2.9 10.1 2.3 4.4-0.8 8.6 2.1 9.3 6.5 0.8 4.4-2.1 8.6-6.5 9.4q-2.6 0.4-5.2 0.4c-6.1 0-11.9-1.8-17-5.3-6.5-4.6-10.8-11.4-12.2-19.2zm81.2-36.2c-0.8-4.4 2.2-8.6 6.6-9.3 7.8-1.4 15.6 0.3 22.1 4.9 6.5 4.5 10.8 11.3 12.2 19.1 2.8 16.1-7.9 31.5-24 34.3l-35.6 6.3q-0.7 0.1-1.4 0.1c-3.9 0-7.3-2.7-8-6.6-0.8-4.4 2.2-8.6 6.6-9.4l35.6-6.3c3.5-0.6 6.6-2.6 8.7-5.5 2-3 2.8-6.5 2.2-10.1-0.6-3.5-2.6-6.6-5.6-8.7-2.9-2-6.5-2.8-10-2.2-4.4 0.8-8.6-2.2-9.4-6.6zm32.5 181.5c5.8 5.4 9.3 13.1 9.3 21.6 0 16.3-13.3 29.6-29.6 29.6h-64.7c-16.3 0-29.6-13.3-29.6-29.6 0-8.5 3.6-16.2 9.3-21.6-5.7-5.4-9.3-13-9.3-21.5 0-8.5 3.6-16.2 9.3-21.6-5.7-5.4-9.3-13.1-9.3-21.5 0-16.4 13.3-29.7 29.6-29.7h32.4c4.4 0 8.1 3.6 8.1 8.1 0 4.5-3.7 8.1-8.1 8.1h-32.4c-7.4 0-13.4 6-13.4 13.5 0 7.4 6 13.4 13.4 13.4h32.4c4.4 0 8.1 3.6 8.1 8.1 0 4.5-3.7 8.1-8.1 8.1h-32.4c-7.4 0-13.4 6-13.4 13.5 0 7.4 6 13.4 13.4 13.4h32.4c4.4 0 8.1 3.7 8.1 8.1 0 4.5-3.7 8.1-8.1 8.1h-32.4c-7.4 0-13.4 6.1-13.4 13.5 0 7.4 6 13.5 13.4 13.5h64.7c7.4 0 13.5-6.1 13.5-13.5 0-7.4-6.1-13.5-13.5-13.5-4.5 0-8.1-3.6-8.1-8.1 0-4.4 3.6-8.1 8.1-8.1 7.4 0 13.5-6 13.5-13.4 0-7.5-6.1-13.5-13.5-13.5-4.5 0-8.1-3.6-8.1-8.1 0-4.5 3.6-8.1 8.1-8.1 7.4 0 13.5-6 13.5-13.4 0-7.5-6.1-13.5-13.5-13.5-4.5 0-8.1-3.6-8.1-8.1 0-4.5 3.6-8.1 8.1-8.1 16.3 0 29.6 13.3 29.6 29.7 0 8.4-3.5 16.1-9.3 21.5 5.8 5.4 9.3 13.1 9.3 21.6 0 8.5-3.5 16.1-9.3 21.5zm-297.9-140.1c0-28.2 23-51.2 51.2-51.2 28.3 0 51.2 23 51.2 51.2 0 28.2-22.9 51.2-51.2 51.2-28.2 0-51.2-23-51.2-51.2zm16.2 0c0 19.3 15.7 35 35 35 19.4 0 35.1-15.7 35.1-35 0-19.3-15.7-35-35.1-35-19.3 0-35 15.7-35 35zm215.6 247.9c0 16.4-13.3 29.7-29.6 29.7h-75.5q-1.4 0-2.7-0.2v153.8c0 8.1-3.2 15.7-9.1 21.3-5.5 5.4-12.8 8.3-20.5 8.3q-0.6 0-1.1 0c-16-0.6-28.6-13.8-28.6-30.2v-96.4c0-7.5-6-13.5-13.5-13.5-7.4 0-13.4 6-13.4 13.5v97c0 8.1-3.2 15.7-9.1 21.3-5.8 5.6-13.5 8.6-21.6 8.3-16.1-0.6-28.6-13.8-28.6-30.2v-120.8q-1.3 0.1-2.7 0.1c-16.4 0-29.6-13.3-29.6-29.6v-140.2c0-40.1 32.6-72.7 72.7-72.7h64.7c40.1 0 72.7 32.6 72.7 72.7v78.2h45.9c16.3 0 29.6 13.3 29.6 29.6zm-124 22.9c-4.5-3.8-8-8.9-9.6-14.8h-92.8v24.3c0 9.1-4.2 17.4-10.7 22.8v127.5c0 7.5 5.8 13.8 12.9 14 3.7 0.1 7.2-1.2 9.9-3.7 2.6-2.6 4.1-6.1 4.1-9.7v-97.1c0-16.3 13.3-29.6 29.6-29.6 16.4 0 29.7 13.3 29.7 29.6v96.5c0 7.5 5.8 13.8 13 14 3.7 0.1 7.2-1.2 9.8-3.7 2.7-2.6 4.1-6.1 4.1-9.7 0 0 0-160.4 0-160.4zm107.8-22.9c0-7.4-6-13.5-13.4-13.5h-53.9c-4.5 0-8.1-3.6-8.1-8v-86.3c0-31.2-25.4-56.6-56.6-56.6h-64.7c-31.2 0-56.6 25.4-56.6 56.6v140.2c0 7.4 6.1 13.4 13.5 13.4 2.4 0 4.7-0.6 6.7-1.7q0-0.1 0.1-0.1c4-2.4 6.7-6.7 6.7-11.6v-118.6c0-4.5 3.6-8.1 8.1-8.1 4.4 0 8 3.6 8 8.1v78.1h91.7v-78.1c0-4.5 3.6-8.1 8-8.1 4.5 0 8.1 3.6 8.1 8.1v86.2c0 7.4 6.1 13.5 13.5 13.5h75.5c7.4 0 13.4-6.1 13.4-13.5z"/>
</svg>