<svg version="1.2" xmlns="http://www.w3.org/2000/svg" viewBox="0 0 512 512" width="512" height="512">
	<title>tax-svgrepo-com-svg</title>
	<style>
		.s0 { fill: #f1f4fb } 
		.s1 { fill: #d5dced } 
		.s2 { fill: #000000 } 
		.s3 { fill: #d96704 } 
		.s4 { fill: #1992d4 } 
	</style>
	<path id="Layer" class="s0" d="m350.1 504h-265.1c-9.5 0-17.1-7.7-17.1-17.1v-461.8c0-9.4 7.6-17.1 17.1-17.1h342c9.5 0 17.1 7.7 17.1 17.1v384.8z"/>
	<path id="Layer" class="s1" d="m350.1 504v-77c0-9.4 7.6-17.1 17.1-17.1h76.9z"/>
	<path id="Layer" fill-rule="evenodd" class="s2" d="m452.1 25.1v384.8c0 2.1-0.8 4.2-2.3 5.7l-94.1 94.1c-1.5 1.5-3.5 2.3-5.6 2.3h-265.1c-13.9 0-25.1-11.3-25.1-25.1v-461.8c0-13.8 11.2-25.1 25.1-25.1h342c13.9 0 25.1 11.3 25.1 25.1zm-16 0c0-5-4.1-9.1-9.1-9.1h-342c-5 0-9.1 4.1-9.1 9.1v461.8c0 5 4.1 9.1 9.1 9.1h257v-69c0-13.8 11.3-25.1 25.2-25.1h68.9zm-11.3 392.8h-57.6c-5 0-9.1 4.1-9.1 9.1v57.6z"/>
	<path id="Layer" class="s2" d="m136.3 84.4h26.2v77.5c0 4.5 3.6 8.1 8 8.1 4.4 0 8-3.6 8-8.1v-77.5h26.2c4.4 0 8-3.5 8-8 0-4.4-3.6-8-8-8h-68.4c-4.4 0-8 3.6-8 8 0 4.5 3.6 8 8 8z"/>
	<path id="Layer" fill-rule="evenodd" class="s2" d="m205.6 159.6l23.8-79.4c2.1-7 8.5-11.8 15.9-11.8h4.3c7.4 0 13.8 4.8 15.9 11.8l23.8 79.4c1.3 4.3-1.1 8.7-5.3 10q-1.2 0.4-2.3 0.4c-3.5 0-6.7-2.3-7.7-5.8l-3.4-11.3h-46.3l-3.4 11.3c-1.2 4.3-5.7 6.7-10 5.4-4.2-1.3-6.6-5.7-5.3-10zm23.5-22.8h36.6l-15.6-52c0-0.2-0.2-0.4-0.5-0.4h-4.3c-0.3 0-0.5 0.2-0.6 0.4z"/>
	<path id="Layer" class="s2" d="m373.7 157.3l-26.7-38.1 26.7-38.2c2.6-3.6 1.7-8.6-1.9-11.1-3.7-2.6-8.7-1.7-11.2 1.9l-23.4 33.4-23.3-33.4c-2.6-3.6-7.6-4.5-11.2-1.9-3.6 2.5-4.5 7.5-2 11.1l26.7 38.2-26.7 38.1c-2.5 3.7-1.6 8.7 2 11.2 1.4 1 3 1.5 4.6 1.5 2.5 0 5-1.2 6.6-3.5l23.3-33.3 23.4 33.3c1.6 2.3 4 3.5 6.6 3.5 1.6 0 3.2-0.5 4.6-1.5 3.6-2.5 4.5-7.5 1.9-11.2z"/>
	<path id="Layer" class="s2" d="m119.2 229.8h17.1c4.4 0 8-3.6 8-8 0-4.4-3.6-8-8-8h-17.1c-4.4 0-8 3.6-8 8 0 4.4 3.6 8 8 8z"/>
	<path id="Layer" class="s2" d="m119.2 264h17.1c4.4 0 8-3.6 8-8 0-4.4-3.6-8-8-8h-17.1c-4.4 0-8 3.6-8 8 0 4.4 3.6 8 8 8z"/>
	<path id="Layer" class="s2" d="m119.2 298.2h17.1c4.4 0 8-3.6 8-8 0-4.4-3.6-8-8-8h-17.1c-4.4 0-8 3.6-8 8 0 4.4 3.6 8 8 8z"/>
	<path id="Layer" class="s2" d="m392.8 213.8h-17.1c-4.4 0-8 3.6-8 8 0 4.4 3.6 8 8 8h17.1c4.4 0 8-3.6 8-8 0-4.4-3.6-8-8-8z"/>
	<path id="Layer" class="s2" d="m392.8 248h-17.1c-4.4 0-8 3.6-8 8 0 4.4 3.6 8 8 8h17.1c4.4 0 8-3.6 8-8 0-4.4-3.6-8-8-8z"/>
	<path id="Layer" class="s2" d="m392.8 282.2h-17.1c-4.4 0-8 3.6-8 8 0 4.4 3.6 8 8 8h17.1c4.4 0 8-3.6 8-8 0-4.4-3.6-8-8-8z"/>
	<path id="Layer" class="s2" d="m273.1 213.8h-102.6c-4.4 0-8 3.6-8 8 0 4.4 3.6 8 8 8h102.6c4.4 0 8-3.6 8-8 0-4.4-3.6-8-8-8z"/>
	<path id="Layer" class="s2" d="m170.5 264h68.4c4.4 0 8-3.6 8-8 0-4.4-3.6-8-8-8h-68.4c-4.4 0-8 3.6-8 8 0 4.4 3.6 8 8 8z"/>
	<path id="Layer" class="s2" d="m281.1 290.2c0-4.4-3.6-8-8-8h-102.6c-4.4 0-8 3.6-8 8 0 4.4 3.6 8 8 8h102.6c4.4 0 8-3.6 8-8z"/>
	<path id="Layer" fill-rule="evenodd" class="s3" d="m152.9 359.3v27.9c11.3 4.3 25.6 11.8 25.6 29.7 0 12.8-10.8 23.2-25.6 26v1.2c0 4.5-3.6 8-8.1 8-4.4 0-8-3.5-8-8v-1.2c-14.9-2.8-25.6-13.2-25.6-26 0-4.5 3.6-8 8-8 4.4 0 8 3.5 8 8 0 3.6 3.7 7.5 9.6 9.4v-27.8c-11.4-4.4-25.6-11.9-25.6-29.7 0-12.8 10.7-23.2 25.6-26v-1.3c0-4.4 3.6-8 8-8 4.5 0 8.1 3.6 8.1 8v1.3c14.8 2.8 25.6 13.2 25.6 26 0 4.4-3.6 8-8 8-4.4 0-8-3.6-8-8 0-3.6-3.7-7.5-9.6-9.5zm-16.1 0c-5.9 2-9.6 5.9-9.6 9.5 0 4.8 1.6 8.3 9.6 12.2zm16.1 45.3v21.7c5.9-2 9.6-5.9 9.6-9.5 0-4.8-1.7-8.3-9.6-12.2z"/>
	<path id="Layer" class="s4" d="m204.7 350.6c-4.4 0-8 3.6-8 8 0 4.4 3.6 8 8 8h59.9c4.4 0 8-3.6 8-8 0-4.4-3.6-8-8-8z"/>
	<path id="Layer" class="s4" d="m238.9 419h-34.2c-4.4 0-8 3.6-8 8 0 4.4 3.6 8 8 8h34.2c4.4 0 8-3.5 8-8 0-4.4-3.6-8-8-8z"/>
	<path id="Layer" class="s4" d="m290.2 419h-17.1c-4.4 0-8 3.6-8 8 0 4.4 3.6 8 8 8h17.1c4.4 0 8-3.5 8-8 0-4.4-3.6-8-8-8z"/>
	<path id="Layer" class="s4" d="m315.9 384.8h-111.2c-4.4 0-8 3.6-8 8 0 4.4 3.6 8 8 8h111.2c4.4 0 8-3.6 8-8 0-4.4-3.6-8-8-8z"/>
	<path id="Layer" class="s2" d="m273.1 264c-4.4 0-8-3.6-8-8 0-4.4 3.6-8 8-8 4.4 0 8 3.6 8 8 0 4.4-3.6 8-8 8z"/>
	<path id="Layer" class="s2" d="m307.3 264c-4.4 0-8-3.6-8-8 0-4.4 3.6-8 8-8 4.4 0 8 3.6 8 8 0 4.4-3.6 8-8 8z"/>
	<path id="Layer" class="s2" d="m341.5 264c-4.4 0-8-3.6-8-8 0-4.4 3.6-8 8-8 4.4 0 8 3.6 8 8 0 4.4-3.6 8-8 8z"/>
	<path id="Layer" class="s2" d="m307.3 229.8c-4.4 0-8-3.6-8-8 0-4.4 3.6-8 8-8 4.4 0 8 3.6 8 8 0 4.4-3.6 8-8 8z"/>
	<path id="Layer" class="s2" d="m341.5 229.8c-4.4 0-8-3.6-8-8 0-4.4 3.6-8 8-8 4.4 0 8 3.6 8 8 0 4.4-3.6 8-8 8z"/>
	<path id="Layer" class="s2" d="m307.3 298.2c-4.4 0-8-3.6-8-8 0-4.4 3.6-8 8-8 4.4 0 8 3.6 8 8 0 4.4-3.6 8-8 8z"/>
	<path id="Layer" class="s2" d="m341.5 298.2c-4.4 0-8-3.6-8-8 0-4.4 3.6-8 8-8 4.4 0 8 3.6 8 8 0 4.4-3.6 8-8 8z"/>
</svg>