<svg version="1.2" xmlns="http://www.w3.org/2000/svg" viewBox="0 0 116 116" width="116" height="116">
	<title>stock-profit-calculator-icon-svg</title>
	<style>
		.s0 { fill: #000000 } 
		.s1 { fill: #d96704 } 
		.s2 { fill: #1992d4 } 
	</style>
	<g id="Layer">
		<g id="Layer">
			<path id="Layer" class="s0" d="m75.3 83.7l1.2 2.5 1.2-2.5z"/>
			<path id="Layer" class="s0" d="m38.8 83.7l1.1 2.5 1.2-2.5z"/>
			<path id="Layer" class="s0" d="m19.8 89.7l1.2 2.5 1.1-2.5z"/>
			<path id="Layer" class="s0" d="m56.4 89.7l1.2 2.5 1.1-2.5z"/>
			<path id="Layer" class="s0" d="m93 89.7l1.1 2.5 1.2-2.5z"/>
			<path id="Layer" fill-rule="evenodd" class="s0" d="m114.4 102.6c-0.7 0.9-1.7 1.3-2.8 1.3-1.3 0-4.5 1.3-7 2.3-2.9 1.1-5.9 2.3-8.5 2.7-0.6 0.1-1.2 0.1-1.8-0.2q-0.7 0.4-1.5 0.4 0 0 0 0-0.1 0-0.3-0.1c-3.8-0.3-6.6-1.7-9.1-2.9-2.4-1.2-4.3-2.2-6.7-2.2q-0.4 0-0.8-0.1-0.4 0.1-0.9 0.1c-1.3 0-4.5 1.3-7 2.3-2.9 1.1-5.9 2.3-8.5 2.7-0.6 0.1-1.2 0.1-1.8-0.2q-0.7 0.4-1.5 0.4 0 0 0 0-0.1 0-0.3-0.1c-3.8-0.3-6.6-1.7-9.1-2.9-2.4-1.2-4.3-2.2-6.7-2.2q-0.4 0-0.8-0.1-0.4 0.1-0.9 0.1c-1.3 0-4.4 1.3-7 2.3-2.9 1.1-5.9 2.3-8.5 2.7-0.6 0.1-1.2 0.1-1.8-0.2q-0.7 0.3-1.4 0.4-0.1 0-0.1 0-0.1 0-0.3-0.1c-3.8-0.3-6.6-1.7-9.1-2.9-2.4-1.2-4.3-2.2-6.7-2.2-1.1 0-2.1-0.5-2.7-1.3-0.7-0.8-1-1.9-0.7-3l1.3-5.5c0.1-0.6 0.5-1.2 1-1.7 0.6-0.6 1.3-1.1 2.2-1.6l0.6-0.3q1.1-0.6 2.4-1.2 1.1-0.5 2.2-1l0.7-0.3q0.6-0.2 1.1-0.4 0.2-0.1 0.4-0.2 0.1-0.1 0.1-0.2 0.3-1.1 0.9-1.8-0.8-1.3-1.1-3-0.1-0.1-0.1-0.2-0.2-0.4-0.3-0.9c-0.3-0.7-0.4-1.5-0.6-2.1-0.1-0.5-0.1-0.9-0.1-1.1q0 0 0 0.2c-0.2-1.3 0.1-2.3 0.6-3v-1.1q0-0.9 0-1.8c0.3-3 2.3-4.7 3-5.2 1.9-1.6 4.1-2.3 5.9-2.7 0.9-0.2 1.7-0.3 2.4-0.4l0.4-0.1q0.6-0.1 1.2-0.1 0.7 0 1.3 0.3v-5.1l7.9-6.5 6.1 5.9q1.1-0.2 2-0.4h0.1l-7.9-7.6-12.1 10c-0.4 0.2-0.7 0.4-1.1 0.4-0.5 0-1-0.2-1.4-0.7-0.6-0.7-0.5-1.8 0.3-2.4l13.3-10.9c0.7-0.6 1.7-0.6 2.3 0l9.8 9.6 11-16.4c0.5-0.6 1.2-0.9 2-0.7l10.7 3.1 26-30.5c0.6-0.7 1.7-0.8 2.5-0.2 0.7 0.7 0.8 1.8 0.2 2.5l-26.8 31.4c-0.4 0.5-1.1 0.7-1.8 0.5l-10.6-3.1-11.4 17q-0.1 0-0.1 0.1 0.4 0.8 0.3 1.6 0.4 0.3 0.7 0.6c0.7 0.6 1.5 1.6 1.9 3v-6.9l9.2-13.7 7 2.1v21.8q0.5 0.5 0.9 1.3 0.1-0.4 0.3-0.7v-1q0-0.9 0.1-1.8c0.2-3 2.3-4.7 2.9-5.3 1.6-1.2 3.2-1.9 4.8-2.3v-15.9l16.2-19.1v41.4c0.9-0.4 1.8-0.6 2.6-0.8 0.8-0.2 1.6-0.3 2.4-0.4l0.4-0.1q0.6-0.1 1.2-0.1c1.2 0 2.4 0.6 3 1.6 0.5 0.7 0.7 1.4 0.6 2.2q0.4 0.3 0.7 0.6c1 0.9 2.1 2.4 2.1 4.9v2.3c0.4 0.7 0.6 1.4 0.5 2.2 0 0.8-0.1 1.5-0.2 2.2v0.3c-0.1 0.5-0.3 1.2-0.6 1.7-0.1 0.1-0.2 0.6-0.3 0.9-0.2 0.5-0.4 1.2-0.7 1.8 0 0.2-0.2 0.5-0.4 0.8q0 0.2 0 0.3c0.4 0.6 0.5 1.2 0.6 1.5l0.1 0.1c2.3 1 5 2.1 7.6 3.4q1.4 0.7 2.3 1.7c0.5 0.5 0.8 1 0.9 1.7l1.3 5.5c0.3 1.1 0 2.2-0.6 3zm-76-2l-1.2-5.5q-0.6-0.6-1.5-1.1c-2.7-1.4-5.5-2.5-8.3-3.6-0.2-0.1-0.5-0.2-0.6-0.4-0.2-0.5-0.3-1.1-0.5-1.6-0.1-0.4-0.2-0.7-0.6-0.8-0.1-0.1-0.2-0.3-0.2-0.4 0-1.3-0.2-2.6 0.7-3.7q0 0 0-0.1c0.5-1.1 0.6-2.3 1.3-3.3q0-0.1 0-0.1 0.2-1.2 0.3-2.3c0-0.1-0.1-0.3-0.2-0.3-0.4-0.2-0.3-0.5-0.3-0.8 0-1.5 0-1.7 0-3.2 0-0.9-0.3-1.7-1-2.3q-1.1-1-2.3-2c-0.4-0.3-0.4-0.5 0-0.9 0.1-0.1 0.3-0.3 0.5-0.4q-0.1-0.1-0.1-0.2c-0.3 0-0.5 0-0.7 0-0.9 0.2-1.7 0.3-2.6 0.5-1.6 0.4-3.2 0.9-4.5 2-0.9 0.7-1.6 1.6-1.7 2.8q0 0.9 0 1.9c0 1 0 0.8 0 1.8 0 0.2-0.1 0.5-0.3 0.5-0.4 0.1-0.4 0.4-0.3 0.8 0 0.2 0 0.5 0 0.7q0.3 1 0.5 1.9c0.2 0.5 0.4 0.9 0.5 1.4 0.2 1 0.5 1.8 1.2 2.6 0.1 0.1 0.2 0.3 0.1 0.5q0 1.1-0.2 2.2c0 0.1-0.2 0.3-0.3 0.4-0.5 0.1-0.5 0.5-0.7 0.8q-0.2 0.8-0.5 1.5c0 0.2-0.2 0.4-0.3 0.4q-1.4 0.6-2.7 1.1c-1 0.4-1.9 0.8-2.8 1.2-1 0.5-1.9 1-2.8 1.5q-0.9 0.4-1.5 1l-1.3 5.5c6.3 0 9.6 4.6 16.1 5.2l-2.4-3.4 3.8-10.2 3.7 10.2-2.3 3.3c4.7-0.8 12.3-5.1 16-5.1zm3.6-8.7l0.3-0.2q1.1-0.6 2.3-1.2 1.1-0.5 2.2-1l1.8-0.7q0.5-0.2 1-0.4 0.2-0.4 0.3-0.9c0.1-0.3 0.3-0.8 0.7-1.3q-2.1-0.9-4.3-1.7c-0.2-0.1-0.4-0.3-0.5-0.5-0.2-0.5-0.4-1-0.6-1.6-0.1-0.3-0.2-0.6-0.5-0.8-0.1 0-0.2-0.2-0.2-0.4 0-1.2-0.3-2.5 0.6-3.6q0.1-0.1 0.1-0.1c0.5-1.1 0.6-2.4 1.3-3.4q0 0 0-0.1 0.1-1.1 0.2-2.3c0-0.1-0.1-0.2-0.1-0.3-0.4-0.1-0.4-0.4-0.4-0.7 0-1.5 0-1.8 0-3.3 0-0.8-0.3-1.6-0.9-2.2q-1.2-1-2.3-2c-0.4-0.3-0.4-0.6-0.1-0.9 0.2-0.2 0.4-0.3 0.5-0.4q0-0.1-0.1-0.2c-0.2 0-0.4 0-0.7 0-0.8 0.1-1.7 0.3-2.5 0.5-1.7 0.3-3.2 0.8-4.5 1.9-0.9 0.8-1.6 1.6-1.7 2.8-0.1 0.7-0.1 1.3-0.1 2 0 1 0 0.7 0 1.8 0 0.1-0.1 0.4-0.2 0.5-0.4 0.1-0.4 0.4-0.4 0.7 0.1 0.3 0 0.5 0.1 0.7q0.2 1 0.5 2c0.1 0.5 0.4 0.9 0.5 1.4 0.1 1 0.5 1.8 1.1 2.5 0.1 0.1 0.2 0.4 0.2 0.5q-0.1 1.1-0.2 2.2c-0.1 0.2-0.2 0.4-0.3 0.4-0.5 0.1-0.6 0.5-0.7 0.9q-0.2 0.8-0.5 1.5c-0.1 0.2-0.3 0.3-0.4 0.4q-1.3 0.5-2.7 1.1c-0.9 0.4-1.9 0.8-2.8 1.2q-0.1 0.1-0.2 0.1 0.2 0.4 0.3 0.7v0.2q0.1 0.3 0.2 0.6c2.5 1 5.4 2.2 8.2 3.6q0.6 0.3 1.1 0.7l2.3-6.4zm33.1 8.8l-1.3-5.6q-0.6-0.6-1.4-1c-2.7-1.4-5.5-2.5-8.4-3.6-0.2-0.1-0.4-0.3-0.5-0.5-0.3-0.5-0.4-1-0.6-1.5-0.1-0.4-0.2-0.7-0.6-0.9-0.1 0-0.1-0.2-0.1-0.3 0-1.3-0.3-2.6 0.6-3.7q0 0 0.1-0.1c0.5-1.1 0.6-2.3 1.3-3.4q0 0 0 0 0.1-1.2 0.2-2.4c0-0.1-0.1-0.2-0.2-0.3-0.3-0.1-0.3-0.4-0.3-0.7 0-1.5 0-1.7 0-3.3 0-0.8-0.3-1.6-0.9-2.2q-1.2-1-2.3-2c-0.4-0.3-0.5-0.6-0.1-0.9 0.2-0.2 0.3-0.3 0.5-0.4q0-0.1-0.1-0.2c-0.2 0-0.5 0-0.7 0-0.8 0.1-1.7 0.3-2.6 0.5-1.6 0.3-3.1 0.9-4.4 1.9-0.9 0.8-1.7 1.6-1.7 2.8-0.1 0.7-0.1 1.3-0.1 2 0 1 0 0.7 0 1.8 0 0.2-0.1 0.4-0.2 0.5-0.4 0.1-0.4 0.4-0.4 0.7 0 0.3 0 0.5 0.1 0.7q0.2 1 0.5 2c0.1 0.5 0.4 0.9 0.4 1.4 0.2 1 0.6 1.8 1.2 2.5 0.1 0.2 0.2 0.4 0.2 0.5q-0.1 1.1-0.2 2.2c-0.1 0.2-0.2 0.4-0.3 0.4-0.5 0.1-0.6 0.5-0.7 0.9q-0.3 0.8-0.5 1.5c-0.1 0.2-0.3 0.3-0.4 0.4q-1.3 0.5-2.7 1.1c-0.9 0.4-1.9 0.8-2.8 1.2-0.9 0.5-1.9 1-2.8 1.5q-0.8 0.4-1.5 1l-1.3 5.5c6.3 0 9.6 4.6 16.2 5.1l-2.4-3.3 3.7-10.3 3.7 10.3-2.3 3.2c4.8-0.8 12.4-5 16.1-5zm3.5-8.8l0.3-0.1q1.2-0.7 2.3-1.2 1.1-0.5 2.3-1l1.7-0.7q0.5-0.2 1.1-0.5 0.1-0.4 0.2-0.8c0.1-0.3 0.3-0.9 0.7-1.4q-2.1-0.9-4.2-1.7c-0.2 0-0.5-0.2-0.6-0.4-0.2-0.5-0.4-1.1-0.5-1.6-0.1-0.3-0.2-0.7-0.6-0.8-0.1-0.1-0.2-0.3-0.2-0.4 0-1.2-0.3-2.5 0.7-3.6q0-0.1 0-0.1c0.5-1.1 0.6-2.4 1.3-3.4q0 0 0-0.1 0.2-1.1 0.3-2.3c0-0.1-0.1-0.3-0.2-0.3-0.4-0.1-0.4-0.4-0.4-0.8 0-1.5 0-1.7 0-3.2 0-0.9-0.2-1.7-0.9-2.3q-1.1-1-2.3-2c-0.4-0.3-0.4-0.5-0.1-0.9 0.2-0.1 0.4-0.2 0.6-0.4q-0.1 0-0.1-0.1c-0.3 0-0.5-0.1-0.7 0-0.9 0.1-1.8 0.2-2.6 0.4-1.6 0.4-3.2 0.9-4.5 2-0.9 0.7-1.6 1.6-1.7 2.8 0 0.6 0 1.3 0 1.9 0 1.1 0 0.8-0.1 1.8 0 0.2-0.1 0.5-0.2 0.5-0.4 0.2-0.4 0.4-0.3 0.8 0 0.2 0 0.5 0 0.7q0.2 1 0.5 1.9c0.1 0.5 0.4 1 0.5 1.5 0.1 0.9 0.5 1.8 1.1 2.5 0.2 0.1 0.2 0.3 0.2 0.5q-0.1 1.1-0.2 2.2c0 0.2-0.2 0.4-0.3 0.4-0.5 0.1-0.6 0.5-0.7 0.9q-0.2 0.7-0.5 1.5c-0.1 0.1-0.2 0.3-0.4 0.4q-1.3 0.5-2.6 1.1c-1 0.4-1.9 0.7-2.8 1.2q-0.2 0-0.3 0.1 0.2 0.4 0.3 0.7l0.1 0.1q0.1 0.4 0.2 0.7c2.4 1 5.3 2.1 8.1 3.6q0.6 0.3 1.1 0.7l2.3-6.4zm33.1 8.8l-1.3-5.6q-0.6-0.6-1.4-1c-2.7-1.4-5.5-2.6-8.3-3.7-0.3 0-0.5-0.2-0.6-0.4-0.2-0.5-0.4-1-0.6-1.6-0.1-0.3-0.1-0.7-0.5-0.8-0.1-0.1-0.2-0.3-0.2-0.4 0-1.2-0.3-2.5 0.6-3.6q0.1-0.1 0.1-0.1c0.5-1.1 0.6-2.4 1.3-3.4q0 0 0-0.1 0.1-1.1 0.2-2.3c0-0.1 0-0.3-0.1-0.3-0.4-0.1-0.4-0.4-0.4-0.8 0-1.5 0-1.7 0-3.2 0-0.9-0.2-1.7-0.9-2.3q-1.1-1-2.3-2c-0.4-0.3-0.4-0.5-0.1-0.9 0.2-0.1 0.4-0.2 0.6-0.4q-0.1 0-0.2-0.1c-0.2 0-0.4-0.1-0.7 0-0.8 0.1-1.7 0.2-2.5 0.4-1.6 0.4-3.2 0.9-4.5 2-0.9 0.7-1.6 1.6-1.7 2.8-0.1 0.6-0.1 1.3-0.1 1.9 0 1.1 0.1 0.8 0 1.8 0 0.2-0.1 0.5-0.2 0.5-0.4 0.2-0.4 0.4-0.4 0.8 0.1 0.2 0 0.5 0.1 0.7q0.2 1 0.5 1.9c0.1 0.5 0.4 1 0.5 1.5 0.1 0.9 0.5 1.8 1.1 2.5 0.1 0.1 0.2 0.3 0.2 0.5q-0.1 1.1-0.2 2.2c0 0.2-0.2 0.4-0.3 0.4-0.5 0.1-0.6 0.5-0.7 0.9q-0.2 0.7-0.5 1.5c-0.1 0.1-0.2 0.3-0.4 0.4q-1.3 0.5-2.6 1.1c-1 0.4-1.9 0.7-2.9 1.2-0.9 0.4-1.8 0.9-2.8 1.4q-0.8 0.5-1.4 1.1l-1.3 5.5c6.3 0 9.5 4.5 16.1 5.1l-2.4-3.4 3.7-10.2 3.8 10.2-2.4 3.3c4.8-0.8 12.4-5 16.1-5z"/>
			<path id="Layer" class="s1" d="m90.9 7.1c0-0.6-0.5-1-1-1h-14.2c-0.5 0-1 0.4-1 1v10.2 14.9l16.2-19z"/>
			<path id="Layer" class="s2" d="m58.2 37.5l7.5 2.1v-11.1-5.1c0-0.5-0.5-1-1.1-1h-14.1c-0.6 0-1 0.5-1 1v7.3 15.4l4.8-7.2c0.9-1.3 2.4-1.9 3.9-1.4z"/>
			<path id="Layer" class="s2" d="m36.1 45.4l5.7 5.5v-6.7-8.6c0-0.6-0.5-1-1-1h-14.2c-0.5 0-1 0.4-1 1v10.9 3.6l5.9-4.9c1.4-1.1 3.3-1 4.6 0.2z"/>
		</g>
	</g>
</svg>