<svg version="1.2" xmlns="http://www.w3.org/2000/svg" viewBox="0 0 512 512" width="512" height="512">
	<title>earnings-svgrepo-com-svg</title>
	<style>
		.s0 { fill: #000000 } 
		.s1 { fill: #1992d4 } 
		.s2 { fill: #d96704 } 
	</style>
	<g id="Layer">
		<g id="Layer">
			<path id="Layer" fill-rule="evenodd" class="s0" d="m500.3 438.3v46.9c0 0-50 15.6-96.9 15.6-54.1 0-95.8-16.7-95.8-16.7v-45.8c0-43.8 36.4-79.2 80.2-79.2h32.3c43.7 0 80.2 35.4 80.2 79.2zm-20.7 32.3v-31.3c0-32.3-27.1-59.4-59.4-59.4h-32.3c-33.4 0-59.4 26.1-59.4 59.4v31.3h-1c11.4 3.1 38.5 10.4 76 10.4 32.2 0 62.5-7.3 76-10.4z"/>
			<path id="Layer" fill-rule="evenodd" class="s0" d="m403.9 244.9c29.1 0 53.1 24 53.1 52.1 0 28.1-24 52.1-53.1 52.1-29.1 0-53.1-24-53.1-52.1 0-29.1 24-52.1 53.1-52.1zm0 19.8c-17.7 0-32.3 14.6-32.3 32.3 0 17.7 14.6 32.3 32.3 32.3 17.7 0 32.3-14.6 32.3-32.3 0-18.7-14.6-32.2-32.3-32.3z"/>
			<path id="Layer" fill-rule="evenodd" class="s0" d="m203.3 439.4v45.8c0 0-50 15.6-95.8 15.6-54.1 0-95.8-15.6-95.8-15.6v-45.8c-1-43.8 35.4-79.2 79.2-79.2h32.3c43.7 0 80.2 35.4 80.1 79.2zm-19.6 31.2v-31.3c0-32.3-27.1-59.4-59.4-59.4h-33.3c-33.4 0-59.4 26.1-59.4 59.4v31.3c11.4 3.1 38.5 10.4 76 10.4 32.2 0 62.5-7.3 76-10.4z"/>
			<path id="Layer" fill-rule="evenodd" class="s0" d="m54.5 297c0-29.2 23.9-52.1 53.1-52.1 29.1 0 53.1 24 53.1 52.1 0 28.1-23.9 52.1-53.1 52.1-29.2 0-53.2-23.9-53.1-52.1zm20.8 0.1c0 17.7 14.6 32.3 32.3 32.3 17.7 0 32.3-14.6 32.3-32.3 1-18.8-13.5-32.3-32.3-32.3-17.8 0-32.3 14.6-32.3 32.3z"/>
			<path id="Layer" fill-rule="evenodd" class="s1" d="m415.9 221.6h-321.9v-210.4h321.9zm-19.7-20.8v-168.8h-281.3v168.8z"/>
			<path id="Layer" fill-rule="evenodd" class="s2" d="m248.1 149.9v-24c-11.4-3.2-19.7-7.3-26-11.5-5.2-5.2-8.3-12.5-8.3-21.9 0-9.4 3.1-16.6 9.4-22.9 6.3-6.2 14.6-9.4 24-10.4v-10.4h18.8v8.3c11.4 1 21.8 6.2 33.3 13.5l-13.5 19.8c-7.3-5.2-13.5-8.4-19.8-9.4v24.1c11.4 3.1 20.8 7.3 26 12.5 5.2 5.2 8.3 12.5 8.3 21.9 0 9.4-3.1 16.6-9.4 22.9-5.2 5.2-14.6 8.3-25 10.4v11.5h-17.7v-11.5c-13.5-2.1-27-8.4-38.5-18.8l15.6-18.8c8.3 7.3 16.6 12.5 22.8 14.7zm17.8-19.9q0.1 0 0.1 0zm0.1 0v19.8c6.2-2.1 8.3-5.2 8.3-10.4 0-2.1-1.1-4.2-2.1-5.2-1.1-1.1-3.2-3.2-6.2-4.2zm-17.9-30.3v-19.8c-5.2 2.1-7.3 4.2-7.3 9.4 0 4.2 2.1 7.3 7.3 10.4z"/>
		</g>
	</g>
</svg>